PathFileType	4	(X/Y/Z)	/Users/visionmauri/Downloads/Videos/OAW01-top_Sports2D/OAW01-top_Sports2D_m_person00.trc
DataRate	CameraRate	NumFrames	NumMarkers	Units	OrigDataRate	OrigDataStartFrame	OrigNumFrames
26.0	26.0	8	22	m	26.0	1017	2035
Frame#	Time	Hip			RHip			RKnee			RAnkle			RBigToe			RSmallToe			RHeel			LHip			LKnee			LAnkle			LBigToe			LSmallToe			LHeel			Neck			Head			Nose			RShoulder			RElbow			RWrist			LShoulder			LElbow			LWrist			
		X1	Y1	Z1	X2	Y2	Z2	X3	Y3	Z3	X4	Y4	Z4	X5	Y5	Z5	X6	Y6	Z6	X7	Y7	Z7	X8	Y8	Z8	X9	Y9	Z9	X10	Y10	Z10	X11	Y11	Z11	X12	Y12	Z12	X13	Y13	Z13	X14	Y14	Z14	X15	Y15	Z15	X16	Y16	Z16	X17	Y17	Z17	X18	Y18	Z18	X19	Y19	Z19	X20	Y20	Z20	X21	Y21	Z21	X22	Y22	Z22
1017	39.13461538461539	1.5969006133295343	0.906647406307486	0.0301	1.5569537176977906	0.9074553736215405	0.0301	1.5388217738231047	0.7248224637847972	0.129	1.516317600242391	0.5812184544511341	0.023	1.5226122425083621	0.5107352818980301	0.2179	1.5008221468310898	0.5183112393975947	0.1804	1.511263680364946	0.5633102532798412	-0.0119	1.6335332773384919	0.8980262177496543	0.0301	1.6004755182755224	0.7205181522236757	0.129	1.5851432521107223	0.5938170653117969	0.023	1.5643522059635109	0.5156493840121785	0.2179	1.5903054417921425	0.520385326053902	0.1804	1.5822592454261406	0.5820685001554077	-0.0119	1.6303932063601394	1.1182352479464748	0.0008	1.6526412421345749	1.2261392045692454	0.0655	1.6402476241925128	1.13163186749625	0.1076	1.5574207100420445	1.1113994622301129	-0.01275	1.5128595146255839	0.9858063400113166	0.0702	1.4883036052499283	0.8869468500865745	0.1076	1.7015977077773867	1.0915488125894206	-0.01275	1.6968118932048366	0.9566545864446249	0.0702	1.6867436012055546	0.8469673763494658	0.1076
1018	39.17309583238787	1.5967097916992774	0.9030022489768911	0.0301	1.5570084342399344	0.9044387351037811	0.0301	1.5387331269572448	0.7252382631197847	0.129	1.5156970845537758	0.5812693688690413	0.023	1.5211049336472893	0.5119636016566088	0.2179	1.5001033438936984	0.5186880820794842	0.1804	1.5110109485163392	0.5640630516465817	-0.0119	1.6337415700921696	0.8955008008519343	0.0301	1.6022148834495475	0.7193744619475442	0.129	1.5838948321986548	0.5763888762113173	0.023	1.565327410480709	0.50225317305146	0.2179	1.5924533090906452	0.5065588772069797	0.1804	1.5799645855517623	0.5618883301503423	-0.0119	1.630006314842028	1.1165631098686524	0.0008	1.6540983286941888	1.224596596955654	0.0655	1.640368932477148	1.1339416705618928	0.1076	1.5549537137812	1.1093423374155522	-0.01275	1.5112082925352202	0.9827723286352351	0.0702	1.4878462530069791	0.8828674448280869	0.1076	1.702099091797385	1.0900498705830404	-0.01275	1.6972189650328522	0.9543715781439001	0.0702	1.6872874235472795	0.8468313250111504	0.1076
1019	39.21157628016036	1.5964538453146182	0.8978939094229109	0.0301	1.5569576506688707	0.9001409386070296	0.0301	1.5381791388019435	0.7206294202884513	0.129	1.5155188676358406	0.5793036793945908	0.023	1.5194181978929562	0.5112390929577156	0.2179	1.498013044290594	0.5190653861064503	0.1804	1.5111301577266543	0.5633925645854255	-0.0119	1.6347778971968652	0.8923640149853768	0.0301	1.6044559817616975	0.7135481106714281	0.129	1.5840237355718618	0.5576716786539948	0.023	1.5668313981831605	0.4881772277548824	0.2179	1.5941974779120263	0.4918049983671938	0.1804	1.5785137452727178	0.5416689024530282	-0.0119	1.6292597378824116	1.1130944960461213	0.0008	1.6544086092930943	1.225581635674626	0.0655	1.6400316119635872	1.1335005376340594	0.1076	1.551986813938884	1.1060042436398552	-0.01275	1.5107103221911964	0.9780826929936722	0.0702	1.4881851121793899	0.877081236235118	0.1076	1.7027371075556386	1.0875703183571064	-0.01275	1.6971725471896284	0.951126034664753	0.0702	1.6878287679198407	0.8454442973348836	0.1076
1020	39.25005672793284	1.5970521619032858	0.8941231475372038	0.0301	1.5571658982291032	0.8959612454220094	0.0301	1.5377910476977428	0.7129813597262713	0.129	1.5158546797227221	0.5754363426402707	0.023	1.518248511476117	0.5094210551341556	0.2179	1.496123711161972	0.5192814551466524	0.1804	1.5116270716930802	0.5609385092139274	-0.0119	1.635919538074324	0.8888922058389392	0.0301	1.606125787584762	0.7046331279004995	0.129	1.5856011673185697	0.5435356322893797	0.023	1.5687707611049522	0.4775853475834128	0.2179	1.594929729999959	0.48050784631900506	0.1804	1.5786536371537743	0.5275211065431875	-0.0119	1.6288774565994701	1.1091571533360156	0.0008	1.655481400402875	1.228029439914035	0.0655	1.6415374733961268	1.131466453394342	0.1076	1.5512328002200173	1.1038253572640009	-0.01275	1.5132857655587781	0.9752320679723138	0.0702	1.4909105759326926	0.8736113082600522	0.1076	1.7032613348368855	1.0844924529124451	-0.01275	1.6967263639295616	0.9496246545069611	0.0702	1.687321650530621	0.8442825086870683	0.1076
1021	39.28853717570532	1.5980859704708892	0.8906806020988037	0.0301	1.5577223160694886	0.8909645713166092	0.0301	1.5380440922473384	0.7082307179335203	0.129	1.515872437404714	0.5724488433907495	0.023	1.5183600512490452	0.5084592439207393	0.2179	1.4959417824319317	0.519205605179662	0.1804	1.511821178428876	0.5584048647672312	-0.0119	1.6362838031539508	0.8830828232090847	0.0301	1.6064538879921457	0.6979357861998438	0.129	1.5868640600395147	0.5363747057468725	0.023	1.5697680433415726	0.47267221360439204	0.2179	1.5945471346789906	0.4751291365911086	0.1804	1.5792633985081177	0.5205838261723119	-0.0119	1.6300724303195953	1.1072678548483228	0.0008	1.657224530387852	1.2259816865858708	0.0655	1.6447737506063431	1.131734326845337	0.1076	1.5529499968072946	1.102866077797388	-0.01275	1.5167147245981976	0.9735064902211878	0.0702	1.4948273520544402	0.8717552337662396	0.1076	1.7039937661302833	1.0810342617462336	-0.01275	1.6970177092385772	0.9485140565601918	0.0702	1.6862136609104705	0.8424108169722853	0.1076
1022	39.32701762347781	1.5993155821512408	0.8847862217787762	0.0301	1.5590156053612678	0.8844025034607714	0.0301	1.5385983667243552	0.7063238719127882	0.129	1.5156801650632465	0.5729873662513462	0.023	1.5197338089649017	0.5084738802706539	0.2179	1.4967573183949145	0.5193330532597223	0.1804	1.5115286984579193	0.5590144893911058	-0.0119	1.6368520053890534	0.8753628199285777	0.0301	1.6062289635104021	0.6941470323772153	0.129	1.5863798738355326	0.5324520865088485	0.023	1.5689927988759584	0.46966076298712506	0.2179	1.593628833505339	0.47236204950488325	0.1804	1.5790139637728207	0.5163410366037312	-0.0119	1.633242997234659	1.1061074110715807	0.0008	1.6588738159655887	1.2190937073678811	0.0655	1.6478998431094247	1.1321714078312912	0.1076	1.5559284013129735	1.1007082625306785	-0.01275	1.5185301370004942	0.9697531940074468	0.0702	1.4983564887740974	0.8678094066327509	0.1076	1.7060066057400016	1.0769770111703392	-0.01275	1.6984465808386535	0.9444327546183693	0.0702	1.686344222100994	0.8370963781874033	0.1076
1023	39.365498071250286	1.6013780924979346	0.8776626094496808	0.0301	1.5614629613724156	0.8778930845902178	0.0301	1.5398671305140794	0.7026239731494428	0.129	1.5158616646034588	0.5763160804036619	0.023	1.5214882964723395	0.508381103808201	0.2179	1.4971027916891084	0.5197603774521093	0.1804	1.5115883286729874	0.5639530117395829	-0.0119	1.639135766916749	0.8688799507705243	0.0301	1.606919750233538	0.6891956008918362	0.129	1.5848171904700052	0.5278529237301544	0.023	1.5668349925611016	0.46478030292472367	0.2179	1.5923753713074005	0.468144075599588	0.1804	1.578487025175983	0.5116900372803693	-0.0119	1.637606798902001	1.1037596995093288	0.0008	1.6615895212225975	1.2128117080867107	0.0655	1.6513364133408608	1.1304503501863001	0.1076	1.5596711505844958	1.0970073991300426	-0.01275	1.5198437577806991	0.9643494994998616	0.0702	1.5016927552189816	0.8620367300993935	0.1076	1.7097285224591363	1.07305551302213	-0.01275	1.701099873454733	0.9379457732095037	0.0702	1.6886859201859	0.8297920653467182	0.1076
1024	39.40397851902277	1.6046058273403003	0.8731886431583965	0.0301	1.5645061157370381	0.8735961838003065	0.0301	1.542923706495067	0.6970738489710018	0.129	1.5163060432043889	0.5801016892982324	0.023	1.5233247732009765	0.507637144005476	0.2179	1.4972935521731	0.5190912376437298	0.1804	1.5125020048566513	0.5708604980108523	-0.0119	1.6430490592447735	0.8654673954159029	0.0301	1.6090814908253435	0.6831426693233034	0.129	1.5835924365038112	0.5224708593393097	0.023	1.5643566474398807	0.45941256756573634	0.2179	1.5907151297307447	0.4630409662624659	0.1804	1.5786351039363777	0.507534120591822	-0.0119	1.6418535623636155	1.1022864310855036	0.0008	1.666284343792583	1.2094882965750278	0.0655	1.656080882326331	1.128587279405432	0.1076	1.563423158180411	1.0945883573225768	-0.01275	1.52219740940808	0.9603488565771393	0.0702	1.5049998638784214	0.8583210204613871	0.1076	1.7142667655997668	1.07068283938961	-0.01275	1.7051688548328596	0.9329631652191355	0.0702	1.692301579669645	0.8246801880119988	0.1076
